<svg width="280" height="169" viewBox="0 0 280 169" fill="none" xmlns="http://www.w3.org/2000/svg">
    <rect width="280" height="168.37" rx="4" transform="matrix(-1 0 0 1 280 0)" fill="url(#paint0_linear_1205_32915)"/>
    <path d="M112 65L156.541 65C157.645 65 158.541 65.8954 158.541 67L158.541 109.541C158.541 110.645 157.645 111.541 156.541 111.541L112.003 111.541L112 65Z" fill="#D1F1FF" stroke="#0F141A" stroke-width="1.5" stroke-linecap="round" stroke-linejoin="round"/>
    <path d="M65 65L111.541 65L111.541 111.541L67.0029 111.541C65.8984 111.541 65.0029 110.645 65.0029 109.541L65 65Z" fill="#D1F1FF" stroke="#0F141A" stroke-width="1.5" stroke-linecap="round" stroke-linejoin="round"/>
    <path d="M111.732 18.3864L111.54 64.9266L64.9995 64.7343L65.1918 18.1971L111.732 18.3864Z" fill="#F0FBFF" stroke="#0F141A" stroke-width="1.5" stroke-linecap="round" stroke-linejoin="round"/>
    <path d="M64.7324 18.1923L64.5402 64.7324L18 64.5401L18.1923 18.003L64.7324 18.1923Z" fill="#F0FBFF" stroke="#0F141A" stroke-width="1.5" stroke-linecap="round" stroke-linejoin="round"/>
    <path d="M41.5 24C33.6965 24 28 26.211 28 28.9162V39.0087V48.1647V52.6127C28 54.5636 30.6272 56.2543 35.3613 57.0347C36.4017 57.2168 37.4942 57.3468 38.6387 57.4249C39.1069 57.4509 39.5751 57.4769 40.0434 57.5029C40.5116 57.5289 41.0058 57.5289 41.5 57.5289C41.9942 57.5289 42.4624 57.5289 42.9566 57.5029C43.4249 57.4769 43.8931 57.4509 44.3613 57.4249C45.5058 57.3468 46.5983 57.2168 47.6387 57.0347C52.3728 56.2283 55 54.5636 55 52.6127V48.0347V38.8786V36.5116V28.9162C55 26.211 49.3035 24 41.5 24Z" stroke="#232F3E" stroke-miterlimit="10" stroke-linejoin="round"/>
    <path d="M55 28.7341C55 31.0491 49.3295 32.948 41.5 32.948C33.6705 32.948 28 31.0751 28 28.7341C28 26.3931 33.6965 24 41.5 24C49.3035 24 55 26.3931 55 28.7341Z" stroke="#232F3E" stroke-miterlimit="10" stroke-linejoin="round"/>
    <path d="M55 37.0839C55 39.3989 49.3295 41.2977 41.5 41.2977C33.6705 41.2977 28 39.4249 28 37.0839" stroke="#232F3E" stroke-miterlimit="10" stroke-linejoin="round"/>
    <path d="M55 45.3555C55 47.6706 49.3295 49.5694 41.5 49.5694C33.6705 49.5694 28 47.6966 28 45.3555" stroke="#232F3E" stroke-miterlimit="10" stroke-linejoin="round"/>
    <path d="M41.5 24C33.6965 24 28 26.211 28 28.9162V39.0087V48.1647V52.6127C28 54.5636 30.6272 56.2543 35.3613 57.0347C36.4017 57.2168 37.4942 57.3468 38.6387 57.4249C39.1069 57.4509 39.5751 57.4769 40.0434 57.5029C40.5116 57.5289 41.0058 57.5289 41.5 57.5289C41.9942 57.5289 42.4624 57.5289 42.9566 57.5029C43.4249 57.4769 43.8931 57.4509 44.3613 57.4249C45.5058 57.3468 46.5983 57.2168 47.6387 57.0347C52.3728 56.2283 55 54.5636 55 52.6127V48.0347V38.8786V36.5116V28.9162C55 26.211 49.3035 24 41.5 24Z" stroke="#232F3E" stroke-miterlimit="10" stroke-linejoin="round"/>
    <path d="M88.5 25C80.6965 25 75 27.211 75 29.9162V40.0087V49.1647V53.6127C75 55.5636 77.6272 57.2543 82.3613 58.0347C83.4017 58.2168 84.4942 58.3468 85.6387 58.4249C86.1069 58.4509 86.5751 58.4769 87.0434 58.5029C87.5116 58.5289 88.0058 58.5289 88.5 58.5289C88.9942 58.5289 89.4624 58.5289 89.9566 58.5029C90.4249 58.4769 90.8931 58.4509 91.3613 58.4249C92.5058 58.3468 93.5983 58.2168 94.6387 58.0347C99.3728 57.2283 102 55.5636 102 53.6127V49.0347V39.8786V37.5116V29.9162C102 27.211 96.3035 25 88.5 25Z" stroke="#232F3E" stroke-miterlimit="10" stroke-linejoin="round"/>
    <path d="M102 29.7341C102 32.0491 96.3295 33.948 88.5 33.948C80.6705 33.948 75 32.0751 75 29.7341C75 27.3931 80.6965 25 88.5 25C96.3035 25 102 27.3931 102 29.7341Z" stroke="#232F3E" stroke-miterlimit="10" stroke-linejoin="round"/>
    <path d="M102 38.0839C102 40.3989 96.3295 42.2977 88.5 42.2977C80.6705 42.2977 75 40.4249 75 38.0839" stroke="#232F3E" stroke-miterlimit="10" stroke-linejoin="round"/>
    <path d="M102 46.3555C102 48.6706 96.3295 50.5694 88.5 50.5694C80.6705 50.5694 75 48.6966 75 46.3555" stroke="#232F3E" stroke-miterlimit="10" stroke-linejoin="round"/>
    <path d="M88.5 25C80.6965 25 75 27.211 75 29.9162V40.0087V49.1647V53.6127C75 55.5636 77.6272 57.2543 82.3613 58.0347C83.4017 58.2168 84.4942 58.3468 85.6387 58.4249C86.1069 58.4509 86.5751 58.4769 87.0434 58.5029C87.5116 58.5289 88.0058 58.5289 88.5 58.5289C88.9942 58.5289 89.4624 58.5289 89.9566 58.5029C90.4249 58.4769 90.8931 58.4509 91.3613 58.4249C92.5058 58.3468 93.5983 58.2168 94.6387 58.0347C99.3728 57.2283 102 55.5636 102 53.6127V49.0347V39.8786V37.5116V29.9162C102 27.211 96.3035 25 88.5 25Z" stroke="#232F3E" stroke-miterlimit="10" stroke-linejoin="round"/>
    <path d="M88.5 71C80.6965 71 75 73.211 75 75.9162V86.0087V95.1647V99.6127C75 101.564 77.6272 103.254 82.3613 104.035C83.4017 104.217 84.4942 104.347 85.6387 104.425C86.1069 104.451 86.5751 104.477 87.0434 104.503C87.5116 104.529 88.0058 104.529 88.5 104.529C88.9942 104.529 89.4624 104.529 89.9566 104.503C90.4249 104.477 90.8931 104.451 91.3613 104.425C92.5058 104.347 93.5983 104.217 94.6387 104.035C99.3728 103.228 102 101.564 102 99.6127V95.0347V85.8786V83.5116V75.9162C102 73.211 96.3035 71 88.5 71Z" stroke="#232F3E" stroke-miterlimit="10" stroke-linejoin="round"/>
    <path d="M102 75.7341C102 78.0491 96.3295 79.948 88.5 79.948C80.6705 79.948 75 78.0751 75 75.7341C75 73.3931 80.6965 71 88.5 71C96.3035 71 102 73.3931 102 75.7341Z" stroke="#232F3E" stroke-miterlimit="10" stroke-linejoin="round"/>
    <path d="M102 84.0839C102 86.3989 96.3295 88.2977 88.5 88.2977C80.6705 88.2977 75 86.4249 75 84.0839" stroke="#232F3E" stroke-miterlimit="10" stroke-linejoin="round"/>
    <path d="M102 92.3555C102 94.6705 96.3295 96.5693 88.5 96.5693C80.6705 96.5693 75 94.6965 75 92.3555" stroke="#232F3E" stroke-miterlimit="10" stroke-linejoin="round"/>
    <path d="M88.5 71C80.6965 71 75 73.211 75 75.9162V86.0087V95.1647V99.6127C75 101.564 77.6272 103.254 82.3613 104.035C83.4017 104.217 84.4942 104.347 85.6387 104.425C86.1069 104.451 86.5751 104.477 87.0434 104.503C87.5116 104.529 88.0058 104.529 88.5 104.529C88.9942 104.529 89.4624 104.529 89.9566 104.503C90.4249 104.477 90.8931 104.451 91.3613 104.425C92.5058 104.347 93.5983 104.217 94.6387 104.035C99.3728 103.228 102 101.564 102 99.6127V95.0347V85.8786V83.5116V75.9162C102 73.211 96.3035 71 88.5 71Z" stroke="#232F3E" stroke-miterlimit="10" stroke-linejoin="round"/>
    <path d="M135.5 72C127.697 72 122 74.211 122 76.9162V87.0087V96.1647V100.613C122 102.564 124.627 104.254 129.361 105.035C130.402 105.217 131.494 105.347 132.639 105.425C133.107 105.451 133.575 105.477 134.043 105.503C134.512 105.529 135.006 105.529 135.5 105.529C135.994 105.529 136.462 105.529 136.957 105.503C137.425 105.477 137.893 105.451 138.361 105.425C139.506 105.347 140.598 105.217 141.639 105.035C146.373 104.228 149 102.564 149 100.613V96.0347V86.8786V84.5116V76.9162C149 74.211 143.303 72 135.5 72Z" stroke="#232F3E" stroke-miterlimit="10" stroke-linejoin="round"/>
    <path d="M149 76.7341C149 79.0491 143.329 80.948 135.5 80.948C127.671 80.948 122 79.0751 122 76.7341C122 74.3931 127.697 72 135.5 72C143.303 72 149 74.3931 149 76.7341Z" stroke="#232F3E" stroke-miterlimit="10" stroke-linejoin="round"/>
    <path d="M149 85.0839C149 87.3989 143.329 89.2977 135.5 89.2977C127.671 89.2977 122 87.4249 122 85.0839" stroke="#232F3E" stroke-miterlimit="10" stroke-linejoin="round"/>
    <path d="M149 93.3555C149 95.6705 143.329 97.5693 135.5 97.5693C127.671 97.5693 122 95.6965 122 93.3555" stroke="#232F3E" stroke-miterlimit="10" stroke-linejoin="round"/>
    <path d="M135.5 72C127.697 72 122 74.211 122 76.9162V87.0087V96.1647V100.613C122 102.564 124.627 104.254 129.361 105.035C130.402 105.217 131.494 105.347 132.639 105.425C133.107 105.451 133.575 105.477 134.043 105.503C134.512 105.529 135.006 105.529 135.5 105.529C135.994 105.529 136.462 105.529 136.957 105.503C137.425 105.477 137.893 105.451 138.361 105.425C139.506 105.347 140.598 105.217 141.639 105.035C146.373 104.228 149 102.564 149 100.613V96.0347V86.8786V84.5116V76.9162C149 74.211 143.303 72 135.5 72Z" stroke="#232F3E" stroke-miterlimit="10" stroke-linejoin="round"/>
    <path d="M158.539 111L203.08 111C204.184 111 205.08 111.895 205.08 113L205.08 155.541C205.08 156.645 204.184 157.541 203.08 157.541L158.542 157.541L158.539 111Z" fill="#42B4FF" stroke="#0F141A" stroke-width="1.5" stroke-linecap="round" stroke-linejoin="round"/>
    <path d="M112 111L158.541 111L158.541 157.541L114.003 157.541C112.898 157.541 112.003 156.645 112.003 155.541L112 111Z" fill="#42B4FF" stroke="#0F141A" stroke-width="1.5" stroke-linecap="round" stroke-linejoin="round"/>
    <path d="M135.5 117C127.697 117 122 119.211 122 121.916V132.009V141.165V145.613C122 147.564 124.627 149.254 129.361 150.035C130.402 150.217 131.494 150.347 132.639 150.425C133.107 150.451 133.575 150.477 134.043 150.503C134.512 150.529 135.006 150.529 135.5 150.529C135.994 150.529 136.462 150.529 136.957 150.503C137.425 150.477 137.893 150.451 138.361 150.425C139.506 150.347 140.598 150.217 141.639 150.035C146.373 149.228 149 147.564 149 145.613V141.035V131.879V129.512V121.916C149 119.211 143.303 117 135.5 117Z" stroke="#232F3E" stroke-miterlimit="10" stroke-linejoin="round"/>
    <path d="M149 121.734C149 124.049 143.329 125.948 135.5 125.948C127.671 125.948 122 124.075 122 121.734C122 119.393 127.697 117 135.5 117C143.303 117 149 119.393 149 121.734Z" stroke="#232F3E" stroke-miterlimit="10" stroke-linejoin="round"/>
    <path d="M149 130.084C149 132.399 143.329 134.298 135.5 134.298C127.671 134.298 122 132.425 122 130.084" stroke="#232F3E" stroke-miterlimit="10" stroke-linejoin="round"/>
    <path d="M149 138.355C149 140.67 143.329 142.569 135.5 142.569C127.671 142.569 122 140.697 122 138.355" stroke="#232F3E" stroke-miterlimit="10" stroke-linejoin="round"/>
    <path d="M135.5 117C127.697 117 122 119.211 122 121.916V132.009V141.165V145.613C122 147.564 124.627 149.254 129.361 150.035C130.402 150.217 131.494 150.347 132.639 150.425C133.107 150.451 133.575 150.477 134.043 150.503C134.512 150.529 135.006 150.529 135.5 150.529C135.994 150.529 136.462 150.529 136.957 150.503C137.425 150.477 137.893 150.451 138.361 150.425C139.506 150.347 140.598 150.217 141.639 150.035C146.373 149.228 149 147.564 149 145.613V141.035V131.879V129.512V121.916C149 119.211 143.303 117 135.5 117Z" stroke="#232F3E" stroke-miterlimit="10" stroke-linejoin="round"/>
    <path d="M182.5 118C174.697 118 169 120.211 169 122.916V133.009V142.165V146.613C169 148.564 171.627 150.254 176.361 151.035C177.402 151.217 178.494 151.347 179.639 151.425C180.107 151.451 180.575 151.477 181.043 151.503C181.512 151.529 182.006 151.529 182.5 151.529C182.994 151.529 183.462 151.529 183.957 151.503C184.425 151.477 184.893 151.451 185.361 151.425C186.506 151.347 187.598 151.217 188.639 151.035C193.373 150.228 196 148.564 196 146.613V142.035V132.879V130.512V122.916C196 120.211 190.303 118 182.5 118Z" stroke="#232F3E" stroke-miterlimit="10" stroke-linejoin="round"/>
    <path d="M196 122.734C196 125.049 190.329 126.948 182.5 126.948C174.671 126.948 169 125.075 169 122.734C169 120.393 174.697 118 182.5 118C190.303 118 196 120.393 196 122.734Z" stroke="#232F3E" stroke-miterlimit="10" stroke-linejoin="round"/>
    <path d="M196 131.084C196 133.399 190.329 135.298 182.5 135.298C174.671 135.298 169 133.425 169 131.084" stroke="#232F3E" stroke-miterlimit="10" stroke-linejoin="round"/>
    <path d="M196 139.355C196 141.67 190.329 143.569 182.5 143.569C174.671 143.569 169 141.697 169 139.355" stroke="#232F3E" stroke-miterlimit="10" stroke-linejoin="round"/>
    <path d="M182.5 118C174.697 118 169 120.211 169 122.916V133.009V142.165V146.613C169 148.564 171.627 150.254 176.361 151.035C177.402 151.217 178.494 151.347 179.639 151.425C180.107 151.451 180.575 151.477 181.043 151.503C181.512 151.529 182.006 151.529 182.5 151.529C182.994 151.529 183.462 151.529 183.957 151.503C184.425 151.477 184.893 151.451 185.361 151.425C186.506 151.347 187.598 151.217 188.639 151.035C193.373 150.228 196 148.564 196 146.613V142.035V132.879V130.512V122.916C196 120.211 190.303 118 182.5 118Z" stroke="#232F3E" stroke-miterlimit="10" stroke-linejoin="round"/>
    <path d="M243.608 49.4977L231.683 61.3096L219.871 49.4977" stroke="#0F141A" stroke-width="1.5" stroke-linejoin="round"/>
    <path d="M243.297 50.697C240.991 50.697 239.121 48.8274 239.121 46.5211L239.121 41.3737C239.121 39.0674 240.991 37.1978 243.297 37.1978V37.1978C245.603 37.1978 247.473 39.0674 247.473 41.3737L247.473 46.5211C247.473 48.8274 245.603 50.697 243.297 50.697V50.697Z" fill="#F3F3F7" stroke="#0F141A" stroke-width="1.5"/>
    <ellipse cx="3.4998" cy="3.4998" rx="3.4998" ry="3.4998" transform="matrix(-1 0 0 1 235.296 57.3718)" fill="#DEDEE3" stroke="#0F141A" stroke-width="1.5"/>
    <path d="M178.968 49.7166L167.042 61.5284L155.23 49.7166" stroke="#0F141A" stroke-width="1.5" stroke-linejoin="round"/>
    <path d="M156.895 50.9158C154.588 50.9158 152.719 49.0462 152.719 46.7399L152.719 41.5924C152.719 39.2862 154.588 37.4165 156.895 37.4165V37.4165C159.201 37.4165 161.071 39.2862 161.071 41.5924L161.071 46.7399C161.071 49.0462 159.201 50.9158 156.895 50.9158V50.9158Z" fill="#F3F3F7" stroke="#0F141A" stroke-width="1.5"/>
    <ellipse cx="3.4998" cy="3.4998" rx="3.4998" ry="3.4998" transform="matrix(-1 0 0 1 170.656 57.5906)" fill="#DEDEE3" stroke="#0F141A" stroke-width="1.5"/>
    <rect x="192.312" y="36.5918" width="13.9992" height="11.3743" rx="2" fill="#DEDEE3" stroke="#0F141A" stroke-width="1.5" stroke-linejoin="round"/>
    <path d="M206.023 40.8086L193.148 44.4689C192.51 44.6504 191.875 44.1708 191.875 43.507V38.0292C191.875 37.4769 192.323 37.0292 192.875 37.0292H205.749C206.301 37.0292 206.749 37.4769 206.749 38.0292V39.8467C206.749 40.2937 206.453 40.6864 206.023 40.8086Z" fill="#0F141A"/>
    <path d="M215.043 14.5159C213.584 9.93518 208.782 7.31009 204.139 8.55438L184.588 13.7929C179.944 15.0372 177.099 19.7115 178.125 24.4081L180.644 35.9302C181.74 40.9469 186.805 44.0306 191.766 42.7016L212.377 37.1787C217.337 35.8496 220.182 30.6465 218.623 25.7536L215.043 14.5159Z" fill="#0F141A"/>
    <path d="M212.559 15.0902C211.257 11.0258 206.993 8.6996 202.871 9.80425L182.302 15.3156C178.179 16.4203 175.65 20.5667 176.554 24.7379L179.107 36.5148C180.075 40.9811 184.582 43.7302 188.996 42.5474L210.689 36.7347C215.103 35.5519 217.632 30.9179 216.237 26.5659L212.559 15.0902Z" fill="#F3F3F7" stroke="#0F141A" stroke-width="1.5"/>
    <path d="M216.834 27.8026L209.689 30.7155C202.124 33.8042 194.058 36.0108 185.952 37.0759L179.648 37.7666" stroke="#0F141A" stroke-width="1.5"/>
    <g clip-path="url(#clip0_1205_32915)">
        <path d="M186.157 30.5869C187.557 30.2117 188.388 28.7724 188.013 27.3721C187.638 25.9719 186.198 25.1409 184.798 25.5161C183.398 25.8913 182.567 27.3306 182.942 28.7308C183.317 30.1311 184.757 30.9621 186.157 30.5869Z" fill="#006CE0" stroke="#0F141A" stroke-width="1.5"/>
        <path d="M202.216 26.2842C203.616 25.909 204.447 24.4697 204.072 23.0694C203.697 21.6691 202.257 20.8381 200.857 21.2133C199.457 21.5885 198.626 23.0278 199.001 24.4281C199.376 25.8284 200.816 26.6594 202.216 26.2842Z" fill="#006CE0" stroke="#0F141A" stroke-width="1.5"/>
    </g>
    <path d="M177.378 53.6322C177.573 49.3607 181.093 45.998 185.369 45.998H213.253C217.529 45.998 221.049 49.3607 221.245 53.6322L222.114 72.6302C222.323 77.1873 218.685 80.996 214.123 80.996H184.5C179.938 80.996 176.299 77.1873 176.508 72.6302L177.378 53.6322Z" fill="#F3F3F7" stroke="#0F141A" stroke-width="1.5"/>
    <path d="M211.897 63.2233C213.663 63.2233 215.095 61.7919 215.095 60.0262C215.095 58.2605 213.663 56.8291 211.897 56.8291C210.131 56.8291 208.699 58.2605 208.699 60.0262C208.699 61.7919 210.131 63.2233 211.897 63.2233Z" fill="#006CE0" stroke="#0F141A" stroke-width="1.5"/>
    <path d="M200.556 59.582H185.176" stroke="#0F141A" stroke-width="1.5"/>
    <path d="M204.571 95.8927L203.602 95.6218C199.209 94.3936 194.551 94.4878 190.21 95.8927V95.8927" stroke="#0F141A" stroke-width="1.5"/>
    <path d="M208.162 90.1492L206.642 89.866C200.016 88.6311 193.209 88.7273 186.62 90.1492V90.1492" stroke="#0F141A" stroke-width="1.5"/>
    <path d="M251.27 56.8819C263.208 56.8819 272.878 47.2006 272.878 35.272C272.878 23.3435 263.197 13.6622 251.27 13.6622C239.343 13.6622 229.662 23.3435 229.662 35.272C229.662 47.2006 239.343 56.8819 251.27 56.8819Z" fill="#FA6F00" stroke="#0F141A" stroke-width="1.5" stroke-miterlimit="10"/>
    <path d="M243.115 49.1212L249.199 35.4523L243.116 34.5987L257.401 20.3107L252.97 32.069L260.22 32.3014L243.115 49.1212Z" fill="white" stroke="#0F141A" stroke-width="1.5" stroke-linecap="square" stroke-linejoin="round"/>
    <path d="M12 158H263" stroke="#0F141A" stroke-width="1.5" stroke-miterlimit="10"/>
    <path d="M29.1208 139.104C28.9893 139.63 29.3915 140.141 29.9329 140.141H41.8902C42.4316 140.141 42.8338 139.63 42.7024 139.104L41.7897 135.407C41.6969 135.036 41.3643 134.773 40.9776 134.773H30.8456C30.4588 134.773 30.1263 135.036 30.0334 135.407L29.1208 139.104V139.104Z" fill="#F3F3F7" stroke="#0F141A" stroke-width="1.5" stroke-miterlimit="10"/>
    <path d="M26.6301 118.662L20.8989 124.362C20.7365 124.517 20.7056 124.734 20.7056 124.958V133.829C20.7056 134.549 21.5563 134.928 22.0978 134.448L26.6301 130.473V118.662V118.662Z" fill="#006CE0" stroke="#0F141A" stroke-width="1.5" stroke-linejoin="round"/>
    <path d="M45.2017 130.496L49.734 134.471C50.2754 134.943 51.1262 134.564 51.1262 133.852V124.981C51.1262 124.757 51.0875 124.54 50.9328 124.386L45.2017 118.685V130.496Z" fill="#006CE0" stroke="#0F141A" stroke-width="1.5" stroke-linejoin="round"/>
    <path d="M26.683 102.923C26.6288 98.3905 28.2376 94.036 31.1225 90.8572L35.2604 86.2862C35.4383 86.0928 35.7244 86 35.9023 86C36.0802 86 36.3896 86.0928 36.5675 86.2862L40.7054 90.8495C43.5903 94.0283 45.1991 98.3905 45.1449 102.915" fill="#F3F3F7"/>
    <path d="M26.683 102.923C26.6288 98.3905 28.2376 94.036 31.1225 90.8572L35.2604 86.2862C35.4383 86.0928 35.7244 86 35.9023 86C36.0802 86 36.3896 86.0928 36.5675 86.2862L40.7054 90.8495C43.5903 94.0283 45.1991 98.3905 45.1449 102.915" stroke="#0F141A" stroke-width="1.5" stroke-miterlimit="10"/>
    <path d="M45.1388 102.722H26.6846V118.662H45.1388V102.722Z" fill="#F3F3F7" stroke="#0F141A" stroke-width="1.5" stroke-linejoin="round"/>
    <path d="M45.1388 118.662H26.6846V134.603H45.1388V118.662Z" fill="#F3F3F7" stroke="#0F141A" stroke-width="1.5" stroke-linejoin="round"/>
    <path d="M35.9204 115.453C33.3526 115.453 31.2798 113.38 31.2798 110.827C31.2798 108.275 33.3603 106.202 35.9204 106.202C38.4805 106.202 40.561 108.275 40.561 110.827C40.561 113.38 38.4805 115.453 35.9204 115.453Z" fill="#75CFFF" stroke="#0F141A" stroke-width="1.5" stroke-miterlimit="10"/>
    <path d="M36.6519 149.916L36.6519 145.423" stroke="#0F141A" stroke-width="1.5" stroke-linecap="square" stroke-linejoin="round"/>
    <path d="M33.1094 144.746L30.8628 148.637" stroke="#0F141A" stroke-width="1.5" stroke-linecap="square" stroke-linejoin="round"/>
    <path d="M40.1685 144.746L42.415 148.637" stroke="#0F141A" stroke-width="1.5" stroke-linecap="square" stroke-linejoin="round"/>
    <defs>
        <linearGradient id="paint0_linear_1205_32915" x1="-1.48288e-07" y1="83.9168" x2="279.99" y2="82.2102" gradientUnits="userSpaceOnUse">
            <stop stop-color="#D1F1FF"/>
            <stop offset="0.955" stop-color="#F2E6FF"/>
        </linearGradient>
        <clipPath id="clip0_1205_32915">
            <rect width="35.8729" height="12.2493" fill="white" transform="translate(177.977 23.7207) rotate(-15)"/>
        </clipPath>
    </defs>
</svg>
